<svg xmlns="http://www.w3.org/2000/svg" width="512" height="422.711" viewBox="0 0 512 422.711">
  <path id="_004-twitter" data-name="004-twitter" d="M194.816,422.711c-85.453,0-152.992-14.93-185.3-40.953l-.629-.508-.57-.57C.636,373-1.88,362.926,1.417,353.043l.3-.82a26.763,26.763,0,0,1,24.422-16.8c21.859-.379,40.984-2.984,58.34-8.043C56.8,314.5,37.566,292.211,26.124,259.945a23.905,23.905,0,0,1,8.34-27.871,24.4,24.4,0,0,1,7.277-3.719A161.475,161.475,0,0,1,8.632,169.02l-.2-.664-.137-.68c-2.16-10.809,2.672-21.922,11.527-26.707a24.786,24.786,0,0,1,11.8-3.332A124.847,124.847,0,0,1,22.2,108.86c-5.227-26.922-.914-53.91,12.813-80.215l3.176-6.352a17.707,17.707,0,0,1,28.359-4.605l5.785,5.793c45.7,47.914,86.641,70.648,157.418,86.2a125.407,125.407,0,0,1,33.855-72.3C286.156,13.739,316.269.469,348.4.016h.211c23.441,0,52.52,13.383,70.105,22.82C433.8,17.9,451.976,10.254,470.835,2.172a23.812,23.812,0,0,1,26.641,4.691c6.8,6.8,8.688,16.391,5.078,25.711Q500.5,38.3,497.9,43.8a23.845,23.845,0,0,1,6.941,4.785,25.753,25.753,0,0,1,6.406,24.066l-.23.816c-7.227,23.289-21.109,42.258-39.469,54.164-3.066,163.285-126.027,295.078-276.73,295.078ZM38.3,365.035c30.449,17.227,88.477,27.648,156.512,27.648,65.41,0,127.137-28.082,173.8-79.074,47.051-51.41,72.961-119.68,72.961-192.234v-.816a17.687,17.687,0,0,1,9.438-15.652C462.828,98.653,472.39,88,478.609,74.379a17.706,17.706,0,0,1-17.059-27.887,97.457,97.457,0,0,0,6.691-10.59c-16.285,6.84-31.75,12.973-45.176,17.047a19.2,19.2,0,0,1-14.773-1.59c-23.9-13.316-46.164-21.277-59.586-21.316-49.527.758-89.8,43.176-89.8,94.605a17.712,17.712,0,0,1-21.137,17.375C156.164,125.946,107.8,101.837,57.515,51.3c-7.207,17.27-9.176,34.664-5.844,51.84,3.379,17.4,12.367,34.832,26,50.414A17.705,17.705,0,0,1,59.8,182.34,81.094,81.094,0,0,1,43.293,176c10.5,22.816,28.57,43.918,51.281,59.48A17.707,17.707,0,0,1,83.25,267.735a79.605,79.605,0,0,1-23.5-5.082c12.734,25.934,33.082,40.2,64.43,45.656a17.709,17.709,0,0,1,5.266,33.1c-26.719,14.164-55.922,21.766-91.141,23.629Zm0,0" transform="translate(0 0)" fill="#fff"/>
</svg>
