<svg xmlns="http://www.w3.org/2000/svg" width="290.602" height="512" viewBox="0 0 290.602 512">
  <path id="_013-facebook" data-name="013-facebook" d="M180,512H98.008a24.863,24.863,0,0,1-24.836-24.836V302.226H25.336A24.866,24.866,0,0,1,.5,277.39V198.144a24.863,24.863,0,0,1,24.836-24.836H73.172V133.625c0-39.348,12.355-72.824,35.727-96.8C132.375,12.73,165.184,0,203.777,0l62.531.1A24.872,24.872,0,0,1,291.1,24.937V98.515a24.859,24.859,0,0,1-24.828,24.836l-42.1.016c-12.84,0-16.109,2.574-16.809,3.363-1.152,1.309-2.523,5.008-2.523,15.223V173.3h58.27a25.243,25.243,0,0,1,12.289,3.121,24.923,24.923,0,0,1,12.777,21.723l-.031,79.246a24.861,24.861,0,0,1-24.836,24.828H204.84V487.163A24.866,24.866,0,0,1,180,512Zm-76.812-30.016H174.82v-193.2A16.6,16.6,0,0,1,191.4,272.207h66.727l.027-68.883H191.4a16.6,16.6,0,0,1-16.578-16.582V141.953c0-11.727,1.191-25.062,10.043-35.086,10.7-12.117,27.551-13.516,39.3-13.516l36.922-.016V30.11l-57.332-.094c-62.023,0-100.566,39.7-100.566,103.609v53.117A16.6,16.6,0,0,1,86.61,203.324H30.516v68.883H86.61a16.6,16.6,0,0,1,16.578,16.582ZM266.25,30.117h0Zm0,0" transform="translate(-0.5 0)" fill="#fff"/>
</svg>
