<svg id="_015-linkedin" data-name="015-linkedin" xmlns="http://www.w3.org/2000/svg" width="456.121" height="512" viewBox="0 0 456.121 512">
  <path id="Path_11" data-name="Path 11" d="M104.359,151.625H18.047A17.566,17.566,0,0,0,.5,169.172V494.457A17.565,17.565,0,0,0,18.047,512h86.313A17.565,17.565,0,0,0,121.9,494.457V169.172A17.565,17.565,0,0,0,104.359,151.625Zm-12.5,330.332H30.543V181.668H91.859Zm0,0" fill="#fff"/>
  <path id="Path_12" data-name="Path 12" d="M61.2,0a61.2,61.2,0,1,0,61.2,61.2A61.268,61.268,0,0,0,61.2,0Zm0,92.359A31.158,31.158,0,1,1,92.359,61.2,31.193,31.193,0,0,1,61.2,92.359Zm0,0" fill="#fff"/>
  <path id="Path_13" data-name="Path 13" d="M401.047,189.762a111.985,111.985,0,0,0-73.832-25.934,113.182,113.182,0,0,0-47.949,11.66v-7.1a16.759,16.759,0,0,0-16.758-16.758H174.625a16.759,16.759,0,0,0-16.758,16.758V495.242A16.757,16.757,0,0,0,174.625,512h89.617a15.023,15.023,0,0,0,15.023-15.02V302.1c0-16.684,13.055-30.8,29.727-31.3a30.691,30.691,0,0,1,31.586,30.645V497.293A14.709,14.709,0,0,0,355.285,512h86.129a14.709,14.709,0,0,0,14.707-14.707V307.406a152.868,152.868,0,0,0-55.074-117.645Zm25.031,292.2H370.625V301.449a60.7,60.7,0,0,0-121.4,0V481.957H187.91V181.668h61.313V203.5h.02A15,15,0,0,0,274.2,214.746a83.224,83.224,0,0,1,53.566-20.883A81.859,81.859,0,0,1,381.8,212.824a122.892,122.892,0,0,1,44.281,94.582Zm0,0" fill="#fff"/>
</svg>
