<svg width="360" height="360" viewBox="0 0 360 360" fill="none" xmlns="http://www.w3.org/2000/svg">
<rect width="360" height="360" rx="32" fill="#222957"/>
<path d="M247.642 104.822H51.5276C44.3019 104.822 37.6638 109.692 36.2895 116.783C34.4372 126.319 41.7272 134.7 50.94 134.7H247.642C249.017 134.7 250.132 133.585 250.132 132.21V107.311C250.132 105.937 249.017 104.822 247.642 104.822Z" fill="#FAFAFA"/>
<path d="M322.236 115.957L257.499 61.1787C256.02 59.9287 253.949 59.6451 252.186 60.4615C250.428 61.2832 249.302 63.0409 249.302 64.983V174.539C249.302 176.481 250.428 178.238 252.186 179.055C252.858 179.369 253.57 179.519 254.282 179.519C255.438 179.519 256.583 179.115 257.5 178.343L322.237 123.565C323.357 122.614 324 121.225 324 119.761C324 118.297 323.357 116.908 322.236 115.957Z" fill="#FAFAFA"/>
<path d="M107.814 179.982C106.051 179.166 103.98 179.449 102.501 180.699L37.7637 235.477C36.6432 236.422 36.0007 237.812 36.0007 239.276C36.0007 240.74 36.6432 242.13 37.7637 243.08L102.501 297.858C103.417 298.63 104.563 299.034 105.718 299.034C106.43 299.034 107.143 298.884 107.815 298.57C109.573 297.754 110.698 295.996 110.698 294.054V184.499C110.698 182.557 109.573 180.798 107.814 179.982Z" fill="#FAFAFA"/>
<path d="M323.71 236.298C322.331 229.207 315.693 224.337 308.472 224.337H112.357C110.983 224.337 109.867 225.452 109.867 226.827V251.726C109.867 253.1 110.983 254.216 112.357 254.216H309.06C318.273 254.216 325.563 245.835 323.71 236.298Z" fill="#FAFAFA"/>
</svg>
